<?xml version="1.0" encoding="utf-8"?>
<!-- Generator: Adobe Illustrator 22.0.1, SVG Export Plug-In . SVG Version: 6.00 Build 0)  -->
<svg version="1.1" id="Ebene_1" xmlns="http://www.w3.org/2000/svg" xmlns:xlink="http://www.w3.org/1999/xlink" x="0px" y="0px"
	 viewBox="0 0 507.3 192.8" style="enable-background:new 0 0 507.3 192.8;" xml:space="preserve">
<style type="text/css">
	.st0{fill:#E30613;}
	.st1{fill:#FFFFFF;}
</style>
<path class="st0" d="M117.5,3L25.4,41.1c0,0,0,0,0,0L1,51.2l10.7,26l32.4,78.3l3.4,8.1c5.9,14.3,21.7,21.4,35.1,15.9l10.7-4.4
	l10.8,16.7l16.6-28l54.1-22.3c13.4-5.5,19.5-21.8,13.6-36l-35.7-86.5C146.7,4.6,130.9-2.5,117.5,3L117.5,3z"/>
<path d="M228.1,109.7V81.5h8.2c3.4,0,6.3,1.1,8.5,3.4c2.2,2.3,3.4,5.2,3.4,8.8v3.6c0,3.6-1.1,6.6-3.4,8.8c-2.2,2.3-5.1,3.4-8.5,3.4
	H228.1L228.1,109.7z M230.4,83.5v24.2h5.9c2.8,0,5.1-1,6.9-2.9c1.8-1.9,2.7-4.4,2.7-7.4v-3.7c0-2.9-0.9-5.4-2.7-7.3
	c-1.8-1.9-4.1-2.9-6.9-2.9H230.4L230.4,83.5z"/>
<path d="M256.1,82.8h-2.3v-3.3h2.3V82.8L256.1,82.8z M256.1,109.7h-2.3V88.8h2.3V109.7L256.1,109.7z"/>
<path d="M275.8,109.7c-0.2-0.7-0.3-1.3-0.3-1.8c-0.1-0.5-0.1-1-0.1-1.6c-0.8,1.1-1.8,2-3.1,2.7c-1.3,0.7-2.7,1.1-4.4,1.1
	c-2,0-3.6-0.5-4.8-1.6c-1.1-1.1-1.7-2.5-1.7-4.4c0-1.9,0.8-3.5,2.5-4.6c1.7-1.2,3.9-1.7,6.8-1.7h4.6v-2.6c0-1.5-0.5-2.7-1.4-3.5
	c-1-0.8-2.3-1.3-4-1.3c-1.6,0-3,0.4-4,1.2c-1.1,0.8-1.6,1.8-1.6,3l-2.1,0l0-0.1c-0.1-1.6,0.6-3,2.1-4.2c1.5-1.2,3.4-1.8,5.7-1.8
	c2.3,0,4.2,0.6,5.6,1.8c1.4,1.2,2.1,2.9,2.1,5.1v10.3c0,0.7,0,1.5,0.1,2.1c0.1,0.7,0.2,1.4,0.4,2.1H275.8L275.8,109.7z M268.2,108.1
	c1.7,0,3.1-0.4,4.4-1.2c1.3-0.8,2.2-1.8,2.8-3v-4.4h-4.7c-2.1,0-3.8,0.4-5,1.3c-1.3,0.9-1.9,2-1.9,3.3c0,1.1,0.4,2.1,1.2,2.8
	C265.7,107.7,266.8,108.1,268.2,108.1L268.2,108.1z"/>
<polygon points="286.4,109.7 284.1,109.7 284.1,79.5 286.4,79.5 286.4,109.7 "/>
<path d="M291.5,98.9c0-3.1,0.8-5.6,2.5-7.6c1.7-2,3.9-3,6.7-3c2.8,0,5,1,6.7,3c1.7,2,2.5,4.5,2.5,7.6v0.6c0,3.1-0.8,5.6-2.5,7.6
	c-1.7,2-3.9,3-6.7,3c-2.8,0-5.1-1-6.8-3c-1.7-2-2.5-4.5-2.5-7.6V98.9L291.5,98.9z M293.8,99.5c0,2.4,0.6,4.5,1.8,6.1
	c1.2,1.6,2.9,2.5,5.1,2.5c2.2,0,3.8-0.8,5.1-2.5c1.2-1.7,1.8-3.7,1.8-6.1v-0.6c0-2.4-0.6-4.4-1.9-6.1c-1.2-1.7-2.9-2.5-5.1-2.5
	c-2.2,0-3.9,0.8-5.1,2.5c-1.2,1.7-1.8,3.7-1.8,6.1V99.5L293.8,99.5z"/>
<path d="M314,99.4c0-3.3,0.7-6,2.1-8c1.4-2,3.4-3,6-3c1.5,0,2.8,0.3,3.9,1c1.1,0.7,2,1.6,2.7,2.8l0.3-3.3h2v20.7
	c0,2.7-0.7,4.8-2.2,6.4c-1.5,1.6-3.6,2.3-6.2,2.3c-1,0-2.1-0.1-3.2-0.4c-1.1-0.2-2.1-0.6-3-1l0.6-2c0.8,0.4,1.7,0.7,2.6,0.9
	c0.9,0.2,1.9,0.3,2.9,0.3c2,0,3.6-0.6,4.6-1.8c1-1.2,1.6-2.8,1.6-4.9v-2.6c-0.7,1.1-1.6,1.9-2.7,2.4c-1.1,0.6-2.3,0.9-3.8,0.9
	c-2.5,0-4.5-0.9-5.9-2.8c-1.4-1.9-2.1-4.4-2.1-7.5V99.4L314,99.4z M316.3,99.8c0,2.5,0.5,4.5,1.5,6.1c1,1.5,2.6,2.3,4.6,2.3
	c1.5,0,2.7-0.3,3.7-1c1-0.7,1.8-1.6,2.3-2.9v-9.7c-0.5-1.2-1.2-2.2-2.2-3c-1-0.8-2.2-1.2-3.8-1.2c-2,0-3.6,0.8-4.6,2.5
	c-1,1.7-1.6,3.9-1.6,6.5V99.8L316.3,99.8z"/>
<path d="M338.9,88.8l0.2,3.5c0.7-1.2,1.6-2.2,2.7-2.8c1.1-0.7,2.4-1,4-1c1.6,0,2.9,0.4,4,1.2c1.1,0.8,1.8,2,2.3,3.5
	c0.6-1.5,1.5-2.6,2.7-3.5c1.2-0.8,2.6-1.2,4.3-1.2c2.2,0,4,0.7,5.2,2.2c1.2,1.5,1.8,3.8,1.8,6.9v12.2h-2.3V97.4
	c0-2.6-0.5-4.4-1.4-5.5c-0.9-1.1-2.2-1.6-3.8-1.6c-1.8,0-3.2,0.6-4.2,1.7c-1,1.1-1.6,2.6-1.8,4.3c0,0.1,0,0.2,0,0.4
	c0,0.2,0,0.3,0,0.4v12.6h-2.3V97.4c0-2.5-0.5-4.3-1.4-5.4c-0.9-1.1-2.2-1.6-3.8-1.6c-1.6,0-2.9,0.4-3.9,1.3c-1,0.8-1.6,2-2,3.4v14.7
	h-2.3V88.8H338.9L338.9,88.8z"/>
<path d="M385.3,109.7c-0.2-0.7-0.3-1.3-0.3-1.8c-0.1-0.5-0.1-1-0.1-1.6c-0.8,1.1-1.8,2-3.1,2.7c-1.3,0.7-2.7,1.1-4.4,1.1
	c-2,0-3.6-0.5-4.8-1.6c-1.1-1.1-1.7-2.5-1.7-4.4c0-1.9,0.8-3.5,2.5-4.6c1.7-1.2,3.9-1.7,6.8-1.7h4.6v-2.6c0-1.5-0.5-2.7-1.4-3.5
	c-1-0.8-2.3-1.3-4-1.3c-1.6,0-3,0.4-4,1.2c-1.1,0.8-1.6,1.8-1.6,3l-2.1,0l0-0.1c-0.1-1.6,0.6-3,2.1-4.2c1.5-1.2,3.4-1.8,5.7-1.8
	c2.3,0,4.2,0.6,5.6,1.8c1.4,1.2,2.1,2.9,2.1,5.1v10.3c0,0.7,0,1.5,0.1,2.1c0.1,0.7,0.2,1.4,0.4,2.1H385.3L385.3,109.7z M377.7,108.1
	c1.7,0,3.1-0.4,4.4-1.2c1.3-0.8,2.2-1.8,2.8-3v-4.4h-4.7c-2.1,0-3.8,0.4-5,1.3c-1.3,0.9-1.9,2-1.9,3.3c0,1.1,0.4,2.1,1.2,2.8
	C375.3,107.7,376.3,108.1,377.7,108.1L377.7,108.1z"/>
<path d="M403,90.8l-1.7-0.1c-1.5,0-2.7,0.4-3.6,1.2c-0.9,0.8-1.6,1.9-2,3.4v14.5h-2.3V88.8h2l0.3,3.5v0.2c0.6-1.3,1.4-2.3,2.4-3
	c1-0.7,2.2-1.1,3.6-1.1c0.3,0,0.6,0,0.9,0.1c0.3,0,0.5,0.1,0.7,0.1L403,90.8L403,90.8z"/>
<polygon points="411.9,99.5 409.2,99.5 409.2,109.7 406.9,109.7 406.9,79.5 409.2,79.5 409.2,97.5 411.6,97.5 419.4,88.8 
	422.1,88.8 422.2,88.9 413.8,98.3 423,109.6 423,109.7 420.3,109.7 411.9,99.5 "/>
<path d="M433.8,110.1c-2.6,0-4.8-1-6.5-2.9c-1.7-1.9-2.6-4.4-2.6-7.4v-1.1c0-3,0.9-5.5,2.6-7.5c1.7-2,3.8-3,6.3-3
	c2.6,0,4.6,0.8,6.1,2.4c1.5,1.6,2.2,3.8,2.2,6.5v2H427v0.6c0,2.4,0.6,4.3,1.9,5.9c1.3,1.6,2.9,2.4,4.9,2.4c1.4,0,2.7-0.2,3.7-0.6
	c1-0.4,1.9-1,2.6-1.7l1,1.6c-0.8,0.8-1.8,1.5-3,2C436.9,109.9,435.5,110.1,433.8,110.1L433.8,110.1z M433.5,90.3
	c-1.7,0-3.2,0.7-4.3,2c-1.2,1.3-1.8,2.9-2,4.9l0,0.1h12.3v-0.6c0-1.8-0.5-3.3-1.6-4.6C436.8,91,435.3,90.3,433.5,90.3L433.5,90.3z"
	/>
<path d="M450,83.4v5.4h4.6v1.9H450v13.6c0,1.4,0.3,2.3,0.7,2.9c0.5,0.6,1.2,0.9,2,0.9c0.4,0,0.7,0,1.1,0c0.4,0,0.8-0.1,1.2-0.2
	l0.4,1.7c-0.4,0.2-0.9,0.3-1.4,0.4c-0.6,0.1-1.1,0.1-1.7,0.1c-1.5,0-2.6-0.5-3.4-1.4c-0.8-0.9-1.2-2.4-1.2-4.4V90.7H444v-1.9h3.6
	v-5.4H450L450,83.4z"/>
<path d="M462.1,82.8h-2.3v-3.3h2.3V82.8L462.1,82.8z M462.1,109.7h-2.3V88.8h2.3V109.7L462.1,109.7z"/>
<path d="M470.6,88.8l0.2,3.7c0.7-1.3,1.6-2.3,2.7-3c1.1-0.7,2.5-1.1,4.1-1.1c2.3,0,4,0.7,5.2,2.1c1.2,1.4,1.8,3.6,1.8,6.5v12.8h-2.3
	V96.9c0-2.4-0.4-4.1-1.3-5.1c-0.9-1-2.2-1.5-3.8-1.5c-1.6,0-3,0.4-4,1.3c-1,0.9-1.8,2-2.2,3.4v14.6h-2.3V88.8H470.6L470.6,88.8z"/>
<path d="M489.7,99.4c0-3.3,0.7-6,2.1-8c1.4-2,3.4-3,5.9-3c1.5,0,2.8,0.3,3.8,1c1.1,0.7,2,1.6,2.7,2.8l0.3-3.3h2v20.7
	c0,2.7-0.7,4.8-2.2,6.4c-1.5,1.6-3.6,2.3-6.2,2.3c-1,0-2.1-0.1-3.2-0.4c-1.1-0.2-2.1-0.6-3-1l0.6-2c0.8,0.4,1.7,0.7,2.6,0.9
	c0.9,0.2,1.9,0.3,2.9,0.3c2,0,3.6-0.6,4.6-1.8c1-1.2,1.6-2.8,1.6-4.9v-2.6c-0.7,1.1-1.6,1.9-2.7,2.4c-1.1,0.6-2.3,0.9-3.8,0.9
	c-2.5,0-4.5-0.9-5.9-2.8c-1.4-1.9-2.1-4.4-2.1-7.5V99.4L489.7,99.4z M492,99.8c0,2.5,0.5,4.5,1.5,6.1c1,1.5,2.6,2.3,4.6,2.3
	c1.5,0,2.7-0.3,3.7-1c1-0.7,1.8-1.6,2.3-2.9v-9.7c-0.5-1.2-1.2-2.2-2.2-3c-1-0.8-2.2-1.2-3.8-1.2c-2,0-3.6,0.8-4.6,2.5
	c-1,1.7-1.6,3.9-1.6,6.5V99.8L492,99.8z"/>
<polygon points="236.1,144.6 236.6,146.4 236.7,146.4 237.3,144.6 245.7,121.2 248.3,121.2 237.8,149.3 235.6,149.3 225.1,121.2 
	227.6,121.2 236.1,144.6 "/>
<path d="M256.8,149.7c-2.6,0-4.8-1-6.5-2.9c-1.7-1.9-2.6-4.4-2.6-7.4v-1.1c0-3,0.9-5.5,2.6-7.5c1.7-2,3.8-3,6.3-3
	c2.6,0,4.6,0.8,6.1,2.4s2.2,3.8,2.2,6.5v2H250v0.6c0,2.4,0.6,4.3,1.9,5.9c1.3,1.6,2.9,2.4,4.9,2.4c1.4,0,2.7-0.2,3.7-0.6
	c1-0.4,1.9-1,2.6-1.7l1,1.6c-0.8,0.8-1.8,1.5-3,2C259.9,149.5,258.5,149.7,256.8,149.7L256.8,149.7z M256.6,130
	c-1.7,0-3.2,0.7-4.3,2c-1.2,1.3-1.8,2.9-2,4.9l0,0.1h12.3v-0.6c0-1.8-0.5-3.3-1.6-4.6C259.8,130.6,258.4,130,256.6,130L256.6,130z"
	/>
<path d="M279,130.4l-1.7-0.1c-1.5,0-2.7,0.4-3.6,1.2c-0.9,0.8-1.6,1.9-2,3.4v14.5h-2.3v-20.9h2l0.3,3.5v0.2c0.6-1.3,1.4-2.3,2.4-3
	c1-0.7,2.2-1.1,3.6-1.1c0.3,0,0.6,0,0.9,0.1c0.3,0,0.5,0.1,0.7,0.1L279,130.4L279,130.4z"/>
<path d="M299.8,139.4c0,3.1-0.7,5.6-2.1,7.5c-1.4,1.9-3.4,2.8-5.9,2.8c-1.5,0-2.9-0.3-4-0.9c-1.1-0.6-2-1.5-2.7-2.6l-0.3,3.2h-2
	v-30.2h2.3v12.5c0.7-1.2,1.6-2.1,2.7-2.7c1.1-0.6,2.4-1,3.9-1c2.5,0,4.5,1,5.9,3c1.4,2,2.1,4.7,2.1,8V139.4L299.8,139.4z M297.4,139
	c0-2.7-0.5-4.9-1.5-6.5c-1-1.7-2.6-2.5-4.6-2.5c-1.6,0-2.9,0.4-3.9,1.2c-1,0.8-1.7,1.8-2.2,3.1v9.5c0.5,1.2,1.3,2.2,2.3,2.9
	c1,0.7,2.3,1.1,3.8,1.1c2,0,3.5-0.8,4.6-2.3c1-1.5,1.5-3.5,1.5-6.1V139L297.4,139z"/>
<path d="M318.2,149.3c-0.2-0.7-0.3-1.3-0.3-1.8c-0.1-0.5-0.1-1-0.1-1.6c-0.8,1.1-1.8,2-3.1,2.7c-1.3,0.7-2.7,1.1-4.4,1.1
	c-2,0-3.6-0.5-4.8-1.6c-1.1-1.1-1.7-2.5-1.7-4.4c0-1.9,0.8-3.5,2.5-4.6c1.7-1.2,3.9-1.7,6.8-1.7h4.6v-2.6c0-1.5-0.5-2.7-1.4-3.5
	c-1-0.9-2.3-1.3-4-1.3c-1.6,0-3,0.4-4,1.2c-1.1,0.8-1.6,1.8-1.6,3l-2.1,0l0-0.1c-0.1-1.6,0.6-3,2.1-4.2c1.5-1.2,3.4-1.8,5.7-1.8
	c2.3,0,4.2,0.6,5.6,1.8c1.4,1.2,2.1,2.9,2.1,5.1v10.3c0,0.7,0,1.5,0.1,2.1c0.1,0.7,0.2,1.4,0.4,2.1H318.2L318.2,149.3z M310.6,147.7
	c1.7,0,3.1-0.4,4.4-1.2c1.3-0.8,2.2-1.8,2.8-3v-4.4h-4.7c-2.1,0-3.8,0.4-5,1.3c-1.3,0.9-1.9,2-1.9,3.3c0,1.1,0.4,2.1,1.2,2.8
	C308.1,147.3,309.2,147.7,310.6,147.7L310.6,147.7z"/>
<path d="M328.3,128.4l0.2,3.7c0.7-1.3,1.6-2.3,2.7-3c1.1-0.7,2.5-1.1,4.1-1.1c2.3,0,4,0.7,5.2,2.1c1.2,1.4,1.8,3.5,1.8,6.5v12.8
	h-2.3v-12.8c0-2.4-0.5-4.1-1.3-5.1c-0.9-1-2.2-1.5-3.8-1.5c-1.6,0-3,0.4-4,1.3c-1,0.9-1.8,2-2.2,3.4v14.6h-2.3v-20.9H328.3
	L328.3,128.4z"/>
<path d="M347.4,139c0-3.3,0.7-6,2.1-8c1.4-2,3.4-3,5.9-3c1.5,0,2.7,0.3,3.8,0.9c1.1,0.6,2,1.5,2.7,2.6v-12.4h2.3v30.2h-2.1l-0.2-3
	c-0.7,1.1-1.6,2-2.7,2.6c-1.1,0.6-2.4,0.9-3.9,0.9c-2.5,0-4.5-0.9-5.9-2.8c-1.4-1.9-2.1-4.4-2.1-7.5V139L347.4,139z M349.7,139.4
	c0,2.5,0.5,4.6,1.5,6.1c1,1.5,2.5,2.3,4.6,2.3c1.5,0,2.7-0.3,3.7-1c1-0.7,1.8-1.6,2.3-2.8v-9.9c-0.5-1.2-1.3-2.2-2.2-3
	c-1-0.8-2.2-1.1-3.8-1.1c-2,0-3.6,0.8-4.6,2.5c-1,1.7-1.5,3.9-1.5,6.5V139.4L349.7,139.4z"/>
<path d="M387.9,149.7c-2.6,0-4.8-1-6.5-2.9c-1.7-1.9-2.6-4.4-2.6-7.4v-1.1c0-3,0.9-5.5,2.6-7.5c1.7-2,3.8-3,6.3-3
	c2.6,0,4.6,0.8,6.1,2.4c1.5,1.6,2.2,3.8,2.2,6.5v2h-14.8v0.6c0,2.4,0.6,4.3,1.9,5.9c1.3,1.6,2.9,2.4,4.9,2.4c1.4,0,2.7-0.2,3.7-0.6
	c1-0.4,1.9-1,2.6-1.7l1,1.6c-0.8,0.8-1.8,1.5-3,2C391,149.5,389.5,149.7,387.9,149.7L387.9,149.7z M387.6,130c-1.7,0-3.2,0.7-4.3,2
	c-1.2,1.3-1.8,2.9-2,4.9l0,0.1h12.3v-0.6c0-1.8-0.5-3.3-1.6-4.6C390.9,130.6,389.4,130,387.6,130L387.6,130z"/>
<polygon points="403.3,149.3 400.6,149.3 400.6,146.2 403.3,146.2 403.3,149.3 "/>
<polygon points="418.4,144.6 419,146.4 419.1,146.4 419.7,144.6 428.1,121.2 430.7,121.2 420.1,149.3 418,149.3 407.5,121.2 
	410,121.2 418.4,144.6 "/>
<polygon points="432.8,149.3 430.2,149.3 430.2,146.2 432.8,146.2 432.8,149.3 "/>
<g>
	<path class="st1" d="M60.5,128L45.3,90.2l10.7-4.3c3.3-1.3,6.5-1.8,9.6-1.3c3.1,0.4,5.9,1.7,8.4,3.8c2.5,2.1,4.4,4.9,5.8,8.4l1,2.4
		c1.4,3.6,2,7,1.7,10.2c-0.3,3.2-1.4,6.1-3.4,8.6c-2,2.5-4.6,4.4-8,5.8L60.5,128z M51.9,92.3l12,29.6l5.2-2.1c3.8-1.6,6.3-4,7.5-7.2
		c1.2-3.3,0.9-7.1-0.9-11.5l-0.9-2.2c-1.7-4.3-4.1-7.2-7.1-8.8c-3-1.6-6.3-1.6-10-0.2L51.9,92.3z"/>
	<path class="st1" d="M95.4,113.9L80.1,76.1l10.7-4.3c3.3-1.3,6.5-1.8,9.6-1.3c3.1,0.4,5.9,1.7,8.4,3.8c2.5,2.1,4.4,4.9,5.8,8.4
		l1,2.4c1.4,3.6,2,7,1.7,10.2c-0.3,3.2-1.4,6.1-3.4,8.6c-2,2.5-4.6,4.4-8,5.8L95.4,113.9z M86.8,78.2l12,29.6l5.2-2.1
		c3.8-1.6,6.3-4,7.5-7.2c1.2-3.3,0.9-7.1-0.9-11.5l-0.9-2.2c-1.7-4.3-4.1-7.2-7.1-8.8c-3-1.6-6.3-1.6-10-0.2L86.8,78.2z"/>
	<path class="st1" d="M139.5,88.4l-1.8-35.5l5.5-2.2l1.3,43.5l-4.4,1.8l-29.3-32.1l5.4-2.2L139.5,88.4z"/>
</g>
<path class="st0" d="M117.5,3L25.4,41.1c0,0,0,0,0,0L1,51.2l10.7,26l32.4,78.3l3.4,8.1c5.9,14.3,21.7,21.4,35.1,15.9l10.7-4.4
	l10.8,16.7l16.6-28l54.1-22.3c13.4-5.5,19.5-21.8,13.6-36l-35.7-86.5C146.7,4.6,130.9-2.5,117.5,3L117.5,3z"/>
<path d="M228.1,109.7V81.5h8.2c3.4,0,6.3,1.1,8.5,3.4c2.2,2.3,3.4,5.2,3.4,8.8v3.6c0,3.6-1.1,6.6-3.4,8.8c-2.2,2.3-5.1,3.4-8.5,3.4
	H228.1L228.1,109.7z M230.4,83.5v24.2h5.9c2.8,0,5.1-1,6.9-2.9c1.8-1.9,2.7-4.4,2.7-7.4v-3.7c0-2.9-0.9-5.4-2.7-7.3
	c-1.8-1.9-4.1-2.9-6.9-2.9H230.4L230.4,83.5z"/>
<path d="M256.1,82.8h-2.3v-3.3h2.3V82.8L256.1,82.8z M256.1,109.7h-2.3V88.8h2.3V109.7L256.1,109.7z"/>
<path d="M275.8,109.7c-0.2-0.7-0.3-1.3-0.3-1.8c-0.1-0.5-0.1-1-0.1-1.6c-0.8,1.1-1.8,2-3.1,2.7c-1.3,0.7-2.7,1.1-4.4,1.1
	c-2,0-3.6-0.5-4.8-1.6c-1.1-1.1-1.7-2.5-1.7-4.4c0-1.9,0.8-3.5,2.5-4.6c1.7-1.2,3.9-1.7,6.8-1.7h4.6v-2.6c0-1.5-0.5-2.7-1.4-3.5
	c-1-0.8-2.3-1.3-4-1.3c-1.6,0-3,0.4-4,1.2c-1.1,0.8-1.6,1.8-1.6,3l-2.1,0l0-0.1c-0.1-1.6,0.6-3,2.1-4.2c1.5-1.2,3.4-1.8,5.7-1.8
	c2.3,0,4.2,0.6,5.6,1.8c1.4,1.2,2.1,2.9,2.1,5.1v10.3c0,0.7,0,1.5,0.1,2.1c0.1,0.7,0.2,1.4,0.4,2.1H275.8L275.8,109.7z M268.2,108.1
	c1.7,0,3.1-0.4,4.4-1.2c1.3-0.8,2.2-1.8,2.8-3v-4.4h-4.7c-2.1,0-3.8,0.4-5,1.3c-1.3,0.9-1.9,2-1.9,3.3c0,1.1,0.4,2.1,1.2,2.8
	C265.7,107.7,266.8,108.1,268.2,108.1L268.2,108.1z"/>
<polygon points="286.4,109.7 284.1,109.7 284.1,79.5 286.4,79.5 286.4,109.7 "/>
<path d="M291.5,98.9c0-3.1,0.8-5.6,2.5-7.6c1.7-2,3.9-3,6.7-3c2.8,0,5,1,6.7,3c1.7,2,2.5,4.5,2.5,7.6v0.6c0,3.1-0.8,5.6-2.5,7.6
	c-1.7,2-3.9,3-6.7,3c-2.8,0-5.1-1-6.8-3c-1.7-2-2.5-4.5-2.5-7.6V98.9L291.5,98.9z M293.8,99.5c0,2.4,0.6,4.5,1.8,6.1
	c1.2,1.6,2.9,2.5,5.1,2.5c2.2,0,3.8-0.8,5.1-2.5c1.2-1.7,1.8-3.7,1.8-6.1v-0.6c0-2.4-0.6-4.4-1.9-6.1c-1.2-1.7-2.9-2.5-5.1-2.5
	c-2.2,0-3.9,0.8-5.1,2.5c-1.2,1.7-1.8,3.7-1.8,6.1V99.5L293.8,99.5z"/>
<path d="M314,99.4c0-3.3,0.7-6,2.1-8c1.4-2,3.4-3,6-3c1.5,0,2.8,0.3,3.9,1c1.1,0.7,2,1.6,2.7,2.8l0.3-3.3h2v20.7
	c0,2.7-0.7,4.8-2.2,6.4c-1.5,1.6-3.6,2.3-6.2,2.3c-1,0-2.1-0.1-3.2-0.4c-1.1-0.2-2.1-0.6-3-1l0.6-2c0.8,0.4,1.7,0.7,2.6,0.9
	c0.9,0.2,1.9,0.3,2.9,0.3c2,0,3.6-0.6,4.6-1.8c1-1.2,1.6-2.8,1.6-4.9v-2.6c-0.7,1.1-1.6,1.9-2.7,2.4c-1.1,0.6-2.3,0.9-3.8,0.9
	c-2.5,0-4.5-0.9-5.9-2.8c-1.4-1.9-2.1-4.4-2.1-7.5V99.4L314,99.4z M316.3,99.8c0,2.5,0.5,4.5,1.5,6.1c1,1.5,2.6,2.3,4.6,2.3
	c1.5,0,2.7-0.3,3.7-1c1-0.7,1.8-1.6,2.3-2.9v-9.7c-0.5-1.2-1.2-2.2-2.2-3c-1-0.8-2.2-1.2-3.8-1.2c-2,0-3.6,0.8-4.6,2.5
	c-1,1.7-1.6,3.9-1.6,6.5V99.8L316.3,99.8z"/>
<path d="M338.9,88.8l0.2,3.5c0.7-1.2,1.6-2.2,2.7-2.8c1.1-0.7,2.4-1,4-1c1.6,0,2.9,0.4,4,1.2c1.1,0.8,1.8,2,2.3,3.5
	c0.6-1.5,1.5-2.6,2.7-3.5c1.2-0.8,2.6-1.2,4.3-1.2c2.2,0,4,0.7,5.2,2.2c1.2,1.5,1.8,3.8,1.8,6.9v12.2h-2.3V97.4
	c0-2.6-0.5-4.4-1.4-5.5c-0.9-1.1-2.2-1.6-3.8-1.6c-1.8,0-3.2,0.6-4.2,1.7c-1,1.1-1.6,2.6-1.8,4.3c0,0.1,0,0.2,0,0.4
	c0,0.2,0,0.3,0,0.4v12.6h-2.3V97.4c0-2.5-0.5-4.3-1.4-5.4c-0.9-1.1-2.2-1.6-3.8-1.6c-1.6,0-2.9,0.4-3.9,1.3c-1,0.8-1.6,2-2,3.4v14.7
	h-2.3V88.8H338.9L338.9,88.8z"/>
<path d="M385.3,109.7c-0.2-0.7-0.3-1.3-0.3-1.8c-0.1-0.5-0.1-1-0.1-1.6c-0.8,1.1-1.8,2-3.1,2.7c-1.3,0.7-2.7,1.1-4.4,1.1
	c-2,0-3.6-0.5-4.8-1.6c-1.1-1.1-1.7-2.5-1.7-4.4c0-1.9,0.8-3.5,2.5-4.6c1.7-1.2,3.9-1.7,6.8-1.7h4.6v-2.6c0-1.5-0.5-2.7-1.4-3.5
	c-1-0.8-2.3-1.3-4-1.3c-1.6,0-3,0.4-4,1.2c-1.1,0.8-1.6,1.8-1.6,3l-2.1,0l0-0.1c-0.1-1.6,0.6-3,2.1-4.2c1.5-1.2,3.4-1.8,5.7-1.8
	c2.3,0,4.2,0.6,5.6,1.8c1.4,1.2,2.1,2.9,2.1,5.1v10.3c0,0.7,0,1.5,0.1,2.1c0.1,0.7,0.2,1.4,0.4,2.1H385.3L385.3,109.7z M377.7,108.1
	c1.7,0,3.1-0.4,4.4-1.2c1.3-0.8,2.2-1.8,2.8-3v-4.4h-4.7c-2.1,0-3.8,0.4-5,1.3c-1.3,0.9-1.9,2-1.9,3.3c0,1.1,0.4,2.1,1.2,2.8
	C375.3,107.7,376.3,108.1,377.7,108.1L377.7,108.1z"/>
<path d="M403,90.8l-1.7-0.1c-1.5,0-2.7,0.4-3.6,1.2c-0.9,0.8-1.6,1.9-2,3.4v14.5h-2.3V88.8h2l0.3,3.5v0.2c0.6-1.3,1.4-2.3,2.4-3
	c1-0.7,2.2-1.1,3.6-1.1c0.3,0,0.6,0,0.9,0.1c0.3,0,0.5,0.1,0.7,0.1L403,90.8L403,90.8z"/>
<polygon points="411.9,99.5 409.2,99.5 409.2,109.7 406.9,109.7 406.9,79.5 409.2,79.5 409.2,97.5 411.6,97.5 419.4,88.8 
	422.1,88.8 422.2,88.9 413.8,98.3 423,109.6 423,109.7 420.3,109.7 411.9,99.5 "/>
<path d="M433.8,110.1c-2.6,0-4.8-1-6.5-2.9c-1.7-1.9-2.6-4.4-2.6-7.4v-1.1c0-3,0.9-5.5,2.6-7.5c1.7-2,3.8-3,6.3-3
	c2.6,0,4.6,0.8,6.1,2.4c1.5,1.6,2.2,3.8,2.2,6.5v2H427v0.6c0,2.4,0.6,4.3,1.9,5.9c1.3,1.6,2.9,2.4,4.9,2.4c1.4,0,2.7-0.2,3.7-0.6
	c1-0.4,1.9-1,2.6-1.7l1,1.6c-0.8,0.8-1.8,1.5-3,2C436.9,109.9,435.5,110.1,433.8,110.1L433.8,110.1z M433.5,90.3
	c-1.7,0-3.2,0.7-4.3,2c-1.2,1.3-1.8,2.9-2,4.9l0,0.1h12.3v-0.6c0-1.8-0.5-3.3-1.6-4.6C436.8,91,435.3,90.3,433.5,90.3L433.5,90.3z"
	/>
<path d="M450,83.4v5.4h4.6v1.9H450v13.6c0,1.4,0.3,2.3,0.7,2.9c0.5,0.6,1.2,0.9,2,0.9c0.4,0,0.7,0,1.1,0c0.4,0,0.8-0.1,1.2-0.2
	l0.4,1.7c-0.4,0.2-0.9,0.3-1.4,0.4c-0.6,0.1-1.1,0.1-1.7,0.1c-1.5,0-2.6-0.5-3.4-1.4c-0.8-0.9-1.2-2.4-1.2-4.4V90.7H444v-1.9h3.6
	v-5.4H450L450,83.4z"/>
<path d="M462.1,82.8h-2.3v-3.3h2.3V82.8L462.1,82.8z M462.1,109.7h-2.3V88.8h2.3V109.7L462.1,109.7z"/>
<path d="M470.6,88.8l0.2,3.7c0.7-1.3,1.6-2.3,2.7-3c1.1-0.7,2.5-1.1,4.1-1.1c2.3,0,4,0.7,5.2,2.1c1.2,1.4,1.8,3.6,1.8,6.5v12.8h-2.3
	V96.9c0-2.4-0.4-4.1-1.3-5.1c-0.9-1-2.2-1.5-3.8-1.5c-1.6,0-3,0.4-4,1.3c-1,0.9-1.8,2-2.2,3.4v14.6h-2.3V88.8H470.6L470.6,88.8z"/>
<path d="M489.7,99.4c0-3.3,0.7-6,2.1-8c1.4-2,3.4-3,5.9-3c1.5,0,2.8,0.3,3.8,1c1.1,0.7,2,1.6,2.7,2.8l0.3-3.3h2v20.7
	c0,2.7-0.7,4.8-2.2,6.4c-1.5,1.6-3.6,2.3-6.2,2.3c-1,0-2.1-0.1-3.2-0.4c-1.1-0.2-2.1-0.6-3-1l0.6-2c0.8,0.4,1.7,0.7,2.6,0.9
	c0.9,0.2,1.9,0.3,2.9,0.3c2,0,3.6-0.6,4.6-1.8c1-1.2,1.6-2.8,1.6-4.9v-2.6c-0.7,1.1-1.6,1.9-2.7,2.4c-1.1,0.6-2.3,0.9-3.8,0.9
	c-2.5,0-4.5-0.9-5.9-2.8c-1.4-1.9-2.1-4.4-2.1-7.5V99.4L489.7,99.4z M492,99.8c0,2.5,0.5,4.5,1.5,6.1c1,1.5,2.6,2.3,4.6,2.3
	c1.5,0,2.7-0.3,3.7-1c1-0.7,1.8-1.6,2.3-2.9v-9.7c-0.5-1.2-1.2-2.2-2.2-3c-1-0.8-2.2-1.2-3.8-1.2c-2,0-3.6,0.8-4.6,2.5
	c-1,1.7-1.6,3.9-1.6,6.5V99.8L492,99.8z"/>
<polygon points="236.1,144.6 236.6,146.4 236.7,146.4 237.3,144.6 245.7,121.2 248.3,121.2 237.8,149.3 235.6,149.3 225.1,121.2 
	227.6,121.2 236.1,144.6 "/>
<path d="M256.8,149.7c-2.6,0-4.8-1-6.5-2.9c-1.7-1.9-2.6-4.4-2.6-7.4v-1.1c0-3,0.9-5.5,2.6-7.5c1.7-2,3.8-3,6.3-3
	c2.6,0,4.6,0.8,6.1,2.4s2.2,3.8,2.2,6.5v2H250v0.6c0,2.4,0.6,4.3,1.9,5.9c1.3,1.6,2.9,2.4,4.9,2.4c1.4,0,2.7-0.2,3.7-0.6
	c1-0.4,1.9-1,2.6-1.7l1,1.6c-0.8,0.8-1.8,1.5-3,2C259.9,149.5,258.5,149.7,256.8,149.7L256.8,149.7z M256.6,130
	c-1.7,0-3.2,0.7-4.3,2c-1.2,1.3-1.8,2.9-2,4.9l0,0.1h12.3v-0.6c0-1.8-0.5-3.3-1.6-4.6C259.8,130.6,258.4,130,256.6,130L256.6,130z"
	/>
<path d="M279,130.4l-1.7-0.1c-1.5,0-2.7,0.4-3.6,1.2c-0.9,0.8-1.6,1.9-2,3.4v14.5h-2.3v-20.9h2l0.3,3.5v0.2c0.6-1.3,1.4-2.3,2.4-3
	c1-0.7,2.2-1.1,3.6-1.1c0.3,0,0.6,0,0.9,0.1c0.3,0,0.5,0.1,0.7,0.1L279,130.4L279,130.4z"/>
<path d="M299.8,139.4c0,3.1-0.7,5.6-2.1,7.5c-1.4,1.9-3.4,2.8-5.9,2.8c-1.5,0-2.9-0.3-4-0.9c-1.1-0.6-2-1.5-2.7-2.6l-0.3,3.2h-2
	v-30.2h2.3v12.5c0.7-1.2,1.6-2.1,2.7-2.7c1.1-0.6,2.4-1,3.9-1c2.5,0,4.5,1,5.9,3c1.4,2,2.1,4.7,2.1,8V139.4L299.8,139.4z M297.4,139
	c0-2.7-0.5-4.9-1.5-6.5c-1-1.7-2.6-2.5-4.6-2.5c-1.6,0-2.9,0.4-3.9,1.2c-1,0.8-1.7,1.8-2.2,3.1v9.5c0.5,1.2,1.3,2.2,2.3,2.9
	c1,0.7,2.3,1.1,3.8,1.1c2,0,3.5-0.8,4.6-2.3c1-1.5,1.5-3.5,1.5-6.1V139L297.4,139z"/>
<path d="M318.2,149.3c-0.2-0.7-0.3-1.3-0.3-1.8c-0.1-0.5-0.1-1-0.1-1.6c-0.8,1.1-1.8,2-3.1,2.7c-1.3,0.7-2.7,1.1-4.4,1.1
	c-2,0-3.6-0.5-4.8-1.6c-1.1-1.1-1.7-2.5-1.7-4.4c0-1.9,0.8-3.5,2.5-4.6c1.7-1.2,3.9-1.7,6.8-1.7h4.6v-2.6c0-1.5-0.5-2.7-1.4-3.5
	c-1-0.9-2.3-1.3-4-1.3c-1.6,0-3,0.4-4,1.2c-1.1,0.8-1.6,1.8-1.6,3l-2.1,0l0-0.1c-0.1-1.6,0.6-3,2.1-4.2c1.5-1.2,3.4-1.8,5.7-1.8
	c2.3,0,4.2,0.6,5.6,1.8c1.4,1.2,2.1,2.9,2.1,5.1v10.3c0,0.7,0,1.5,0.1,2.1c0.1,0.7,0.2,1.4,0.4,2.1H318.2L318.2,149.3z M310.6,147.7
	c1.7,0,3.1-0.4,4.4-1.2c1.3-0.8,2.2-1.8,2.8-3v-4.4h-4.7c-2.1,0-3.8,0.4-5,1.3c-1.3,0.9-1.9,2-1.9,3.3c0,1.1,0.4,2.1,1.2,2.8
	C308.1,147.3,309.2,147.7,310.6,147.7L310.6,147.7z"/>
<path d="M328.3,128.4l0.2,3.7c0.7-1.3,1.6-2.3,2.7-3c1.1-0.7,2.5-1.1,4.1-1.1c2.3,0,4,0.7,5.2,2.1c1.2,1.4,1.8,3.5,1.8,6.5v12.8
	h-2.3v-12.8c0-2.4-0.5-4.1-1.3-5.1c-0.9-1-2.2-1.5-3.8-1.5c-1.6,0-3,0.4-4,1.3c-1,0.9-1.8,2-2.2,3.4v14.6h-2.3v-20.9H328.3
	L328.3,128.4z"/>
<path d="M347.4,139c0-3.3,0.7-6,2.1-8c1.4-2,3.4-3,5.9-3c1.5,0,2.7,0.3,3.8,0.9c1.1,0.6,2,1.5,2.7,2.6v-12.4h2.3v30.2h-2.1l-0.2-3
	c-0.7,1.1-1.6,2-2.7,2.6c-1.1,0.6-2.4,0.9-3.9,0.9c-2.5,0-4.5-0.9-5.9-2.8c-1.4-1.9-2.1-4.4-2.1-7.5V139L347.4,139z M349.7,139.4
	c0,2.5,0.5,4.6,1.5,6.1c1,1.5,2.5,2.3,4.6,2.3c1.5,0,2.7-0.3,3.7-1c1-0.7,1.8-1.6,2.3-2.8v-9.9c-0.5-1.2-1.3-2.2-2.2-3
	c-1-0.8-2.2-1.1-3.8-1.1c-2,0-3.6,0.8-4.6,2.5c-1,1.7-1.5,3.9-1.5,6.5V139.4L349.7,139.4z"/>
<path d="M387.9,149.7c-2.6,0-4.8-1-6.5-2.9c-1.7-1.9-2.6-4.4-2.6-7.4v-1.1c0-3,0.9-5.5,2.6-7.5c1.7-2,3.8-3,6.3-3
	c2.6,0,4.6,0.8,6.1,2.4c1.5,1.6,2.2,3.8,2.2,6.5v2h-14.8v0.6c0,2.4,0.6,4.3,1.9,5.9c1.3,1.6,2.9,2.4,4.9,2.4c1.4,0,2.7-0.2,3.7-0.6
	c1-0.4,1.9-1,2.6-1.7l1,1.6c-0.8,0.8-1.8,1.5-3,2C391,149.5,389.5,149.7,387.9,149.7L387.9,149.7z M387.6,130c-1.7,0-3.2,0.7-4.3,2
	c-1.2,1.3-1.8,2.9-2,4.9l0,0.1h12.3v-0.6c0-1.8-0.5-3.3-1.6-4.6C390.9,130.6,389.4,130,387.6,130L387.6,130z"/>
<polygon points="403.3,149.3 400.6,149.3 400.6,146.2 403.3,146.2 403.3,149.3 "/>
<polygon points="418.4,144.6 419,146.4 419.1,146.4 419.7,144.6 428.1,121.2 430.7,121.2 420.1,149.3 418,149.3 407.5,121.2 
	410,121.2 418.4,144.6 "/>
<polygon points="432.8,149.3 430.2,149.3 430.2,146.2 432.8,146.2 432.8,149.3 "/>
<g>
	<path class="st1" d="M60.5,128L45.3,90.2l10.7-4.3c3.3-1.3,6.5-1.8,9.6-1.3c3.1,0.4,5.9,1.7,8.4,3.8c2.5,2.1,4.4,4.9,5.8,8.4l1,2.4
		c1.4,3.6,2,7,1.7,10.2c-0.3,3.2-1.4,6.1-3.4,8.6c-2,2.5-4.6,4.4-8,5.8L60.5,128z M51.9,92.3l12,29.6l5.2-2.1c3.8-1.6,6.3-4,7.5-7.2
		c1.2-3.3,0.9-7.1-0.9-11.5l-0.9-2.2c-1.7-4.3-4.1-7.2-7.1-8.8c-3-1.6-6.3-1.6-10-0.2L51.9,92.3z"/>
	<path class="st1" d="M95.4,113.9L80.1,76.1l10.7-4.3c3.3-1.3,6.5-1.8,9.6-1.3c3.1,0.4,5.9,1.7,8.4,3.8c2.5,2.1,4.4,4.9,5.8,8.4
		l1,2.4c1.4,3.6,2,7,1.7,10.2c-0.3,3.2-1.4,6.1-3.4,8.6c-2,2.5-4.6,4.4-8,5.8L95.4,113.9z M86.8,78.2l12,29.6l5.2-2.1
		c3.8-1.6,6.3-4,7.5-7.2c1.2-3.3,0.9-7.1-0.9-11.5l-0.9-2.2c-1.7-4.3-4.1-7.2-7.1-8.8c-3-1.6-6.3-1.6-10-0.2L86.8,78.2z"/>
	<path class="st1" d="M139.5,88.4l-1.8-35.5l5.5-2.2l1.3,43.5l-4.4,1.8l-29.3-32.1l5.4-2.2L139.5,88.4z"/>
</g>
<g>
	<path d="M231,4l9.9,23.7h0.1L250.9,4h2.9v26.9h-2.2V19l0.2-11.8l-0.1,0l-10,23.7h-1.5l-10-23.6l-0.1,0l0.2,11.7v11.9h-2.2V4H231z"
		/>
	<path d="M262.8,5.2h-2.2V2.1h2.2V5.2z M262.8,30.9h-2.2v-20h2.2V30.9z"/>
	<path d="M272.4,5.8v5.1h4.4v1.8h-4.4v13c0,1.3,0.2,2.2,0.7,2.8c0.5,0.5,1.1,0.8,1.9,0.8c0.4,0,0.7,0,1,0c0.3,0,0.7-0.1,1.2-0.2
		l0.3,1.6c-0.4,0.2-0.8,0.3-1.3,0.4c-0.5,0.1-1.1,0.1-1.6,0.1c-1.4,0-2.5-0.4-3.3-1.3c-0.8-0.9-1.2-2.3-1.2-4.2v-13h-3.5v-1.8h3.5
		V5.8H272.4z"/>
	<path d="M280.6,21.1c0-3.2,0.7-5.7,2-7.7c1.4-1.9,3.3-2.9,5.7-2.9c1.4,0,2.6,0.3,3.7,0.9c1,0.6,1.9,1.5,2.6,2.6l0.3-3.2h1.9v19.7
		c0,2.6-0.7,4.6-2.1,6.1c-1.4,1.5-3.4,2.2-5.9,2.2c-1,0-2-0.1-3.1-0.3c-1.1-0.2-2-0.6-2.8-1l0.6-1.9c0.8,0.4,1.6,0.7,2.5,0.9
		c0.9,0.2,1.8,0.3,2.8,0.3c1.9,0,3.4-0.6,4.4-1.7c1-1.1,1.5-2.7,1.5-4.7v-2.5c-0.7,1-1.5,1.8-2.6,2.3c-1,0.5-2.2,0.8-3.6,0.8
		c-2.4,0-4.3-0.9-5.6-2.7c-1.4-1.8-2-4.2-2-7.1V21.1z M282.8,21.5c0,2.4,0.5,4.3,1.5,5.8c1,1.4,2.4,2.2,4.4,2.2c1.4,0,2.6-0.3,3.6-1
		c1-0.7,1.7-1.6,2.2-2.7v-9.3c-0.5-1.2-1.2-2.1-2.1-2.9c-0.9-0.7-2.1-1.1-3.6-1.1c-1.9,0-3.4,0.8-4.4,2.4c-1,1.6-1.5,3.7-1.5,6.2
		V21.5z"/>
	<path d="M305,30.9h-2.2V2.1h2.2V30.9z"/>
	<path d="M313.6,5.2h-2.2V2.1h2.2V5.2z M313.6,30.9h-2.2v-20h2.2V30.9z"/>
	<path d="M327.2,31.3c-2.5,0-4.6-0.9-6.2-2.8c-1.7-1.8-2.5-4.2-2.5-7v-1c0-2.9,0.8-5.2,2.5-7.1c1.6-1.9,3.6-2.8,6-2.8
		c2.5,0,4.4,0.8,5.8,2.3c1.4,1.6,2.1,3.6,2.1,6.2V21h-14.1v0.5c0,2.2,0.6,4.1,1.8,5.6c1.2,1.5,2.8,2.3,4.7,2.3
		c1.4,0,2.6-0.2,3.5-0.6c1-0.4,1.8-0.9,2.5-1.6l0.9,1.5c-0.7,0.8-1.7,1.4-2.9,1.9C330.1,31,328.8,31.3,327.2,31.3z M326.9,12.4
		c-1.6,0-3,0.6-4.1,1.9c-1.1,1.2-1.8,2.8-1.9,4.7l0,0.1h11.7v-0.5c0-1.7-0.5-3.2-1.5-4.3C330,13,328.6,12.4,326.9,12.4z"/>
	<path d="M338.3,21.1c0-3.2,0.7-5.7,2-7.7c1.3-1.9,3.2-2.9,5.6-2.9c1.4,0,2.6,0.3,3.6,0.9c1,0.6,1.9,1.4,2.5,2.5V2.1h2.2v28.8h-2
		l-0.2-2.9c-0.7,1.1-1.5,1.9-2.6,2.4c-1,0.6-2.3,0.8-3.7,0.8c-2.4,0-4.3-0.9-5.6-2.7c-1.3-1.8-2-4.2-2-7.2V21.1z M340.5,21.5
		c0,2.4,0.5,4.4,1.4,5.8c1,1.4,2.4,2.2,4.4,2.2c1.4,0,2.6-0.3,3.6-1c1-0.6,1.7-1.5,2.2-2.7v-9.4c-0.5-1.2-1.2-2.1-2.1-2.8
		c-0.9-0.7-2.1-1.1-3.6-1.1c-1.9,0-3.4,0.8-4.4,2.4c-1,1.6-1.5,3.7-1.5,6.2V21.5z"/>
	<path d="M371.9,5.2h-2.2V2.1h2.2V5.2z M371.9,30.9h-2.2v-20h2.2V30.9z"/>
	<path d="M379.9,10.9l0.2,3.3c0.6-1.2,1.5-2.1,2.6-2.7c1.1-0.6,2.3-1,3.8-1c1.5,0,2.8,0.4,3.8,1.1c1,0.7,1.8,1.9,2.2,3.4
		c0.6-1.4,1.5-2.5,2.6-3.3c1.1-0.8,2.5-1.2,4.1-1.2c2.1,0,3.8,0.7,4.9,2.1c1.2,1.4,1.7,3.6,1.7,6.6v11.7h-2.2V19.2
		c0-2.5-0.4-4.2-1.3-5.2c-0.9-1-2.1-1.5-3.6-1.5c-1.7,0-3,0.5-4,1.6c-0.9,1.1-1.5,2.4-1.7,4.1c0,0.1,0,0.2,0,0.4c0,0.2,0,0.3,0,0.4
		v12h-2.2V19.2c0-2.4-0.4-4.1-1.3-5.2c-0.9-1-2.1-1.6-3.6-1.6c-1.6,0-2.8,0.4-3.7,1.2c-0.9,0.8-1.6,1.9-1.9,3.2v14.1h-2.2v-20H379.9
		z"/>
</g>
<g>
	<path d="M228.1,70.1V42.1h8.2c3.4,0,6.3,1.1,8.5,3.4c2.2,2.3,3.4,5.2,3.4,8.8v3.6c0,3.6-1.1,6.5-3.4,8.8c-2.2,2.3-5.1,3.4-8.5,3.4
		H228.1z M230.4,44v24.1h5.9c2.8,0,5.1-1,6.9-2.9c1.8-1.9,2.7-4.4,2.7-7.4v-3.7c0-2.9-0.9-5.4-2.7-7.3c-1.8-1.9-4.1-2.9-6.8-2.9
		H230.4z"/>
	<path d="M261.2,70.6c-2.6,0-4.8-1-6.5-2.9c-1.7-1.9-2.6-4.4-2.6-7.3v-1.1c0-3,0.9-5.5,2.6-7.4c1.7-2,3.8-3,6.2-3
		c2.6,0,4.6,0.8,6,2.4c1.5,1.6,2.2,3.8,2.2,6.5v2h-14.7v0.6c0,2.3,0.6,4.3,1.9,5.9c1.3,1.6,2.9,2.4,4.9,2.4c1.4,0,2.7-0.2,3.7-0.6
		c1-0.4,1.9-1,2.6-1.7l1,1.6c-0.8,0.8-1.8,1.5-3,2C264.3,70.3,262.9,70.6,261.2,70.6z M261,50.9c-1.7,0-3.1,0.6-4.3,2
		c-1.2,1.3-1.8,2.9-2,4.9l0,0.1h12.2v-0.6c0-1.8-0.5-3.3-1.6-4.5C264.2,51.5,262.8,50.9,261,50.9z"/>
	<path d="M287.4,66.7c-0.7,1.2-1.6,2.2-2.7,2.8c-1.1,0.7-2.5,1-4,1c-2.2,0-3.9-0.7-5.2-2.2c-1.2-1.5-1.9-3.8-1.9-6.9V49.3h2.3v12.2
		c0,2.5,0.4,4.4,1.3,5.5c0.9,1.1,2.1,1.7,3.7,1.7c1.7,0,3.1-0.4,4.2-1.2c1-0.8,1.8-1.9,2.2-3.2V49.3h2.3v20.9h-2L287.4,66.7z"/>
	<path d="M299.4,43.9v5.3h4.6v1.9h-4.6v13.6c0,1.4,0.3,2.3,0.7,2.9c0.5,0.6,1.2,0.9,2,0.9c0.4,0,0.7,0,1.1,0c0.4,0,0.8-0.1,1.2-0.2
		l0.3,1.7c-0.4,0.2-0.9,0.3-1.4,0.4c-0.6,0.1-1.1,0.1-1.7,0.1c-1.5,0-2.6-0.5-3.4-1.4c-0.8-0.9-1.2-2.4-1.2-4.4V51.2h-3.6v-1.9h3.6
		v-5.3H299.4z"/>
	<path d="M321.4,64.8c0-1-0.4-1.8-1.2-2.6c-0.8-0.7-2.3-1.3-4.3-1.8c-2.5-0.5-4.3-1.3-5.5-2.1c-1.2-0.9-1.8-2.1-1.8-3.8
		c0-1.6,0.7-2.9,2-4c1.3-1.1,3.1-1.7,5.3-1.7c2.3,0,4.2,0.6,5.6,1.7c1.4,1.2,2,2.6,2,4.4l0,0.1h-2.1c0-1.1-0.5-2.1-1.5-3
		c-1-0.8-2.3-1.3-3.9-1.3c-1.7,0-2.9,0.4-3.8,1.1c-0.8,0.7-1.3,1.6-1.3,2.5c0,1,0.4,1.8,1.1,2.4c0.7,0.6,2.2,1.2,4.3,1.6
		c2.5,0.6,4.3,1.3,5.6,2.3c1.2,1,1.9,2.3,1.9,3.9c0,1.7-0.7,3.2-2.1,4.2c-1.4,1.1-3.3,1.6-5.6,1.6c-2.5,0-4.5-0.6-6-1.8
		c-1.4-1.2-2.1-2.6-2.1-4.3l0-0.1h2.1c0.1,1.5,0.7,2.6,1.8,3.3c1.1,0.7,2.5,1,4,1c1.7,0,3-0.4,4-1.1
		C320.9,66.8,321.4,65.9,321.4,64.8z"/>
	<path d="M336.7,68.6c1.5,0,2.9-0.4,4-1.3c1.2-0.9,1.8-2.1,1.8-3.6h2l0,0.1c0.1,1.9-0.7,3.5-2.3,4.8c-1.6,1.3-3.5,1.9-5.6,1.9
		c-2.8,0-5-1-6.6-2.9c-1.5-1.9-2.3-4.5-2.3-7.5v-0.8c0-3,0.8-5.5,2.3-7.5c1.6-2,3.7-2.9,6.6-2.9c2.3,0,4.2,0.7,5.7,2
		c1.5,1.4,2.3,3.1,2.2,5.3l0,0.1h-2.1c0-1.7-0.6-3-1.7-4c-1.1-1-2.5-1.5-4.1-1.5c-2.2,0-3.9,0.8-5,2.4c-1.1,1.6-1.6,3.6-1.6,6v0.8
		c0,2.5,0.5,4.5,1.6,6.1C332.8,67.8,334.4,68.6,336.7,68.6z"/>
	<path d="M351.7,52.8c0.7-1.2,1.6-2.2,2.8-2.9c1.2-0.7,2.5-1,4.1-1c2.2,0,3.9,0.7,5.1,2c1.2,1.4,1.8,3.5,1.8,6.3v12.9h-2.3V57.2
		c0-2.3-0.4-3.9-1.3-4.9c-0.9-1-2.1-1.5-3.7-1.5c-1.6,0-2.9,0.4-4,1.2c-1.1,0.8-1.8,1.9-2.3,3.3v14.7h-2.3V40.1h2.3V52.8z"/>
	<path d="M379.2,70.6c-2.6,0-4.8-1-6.5-2.9c-1.7-1.9-2.6-4.4-2.6-7.3v-1.1c0-3,0.9-5.5,2.6-7.4c1.7-2,3.8-3,6.2-3
		c2.6,0,4.6,0.8,6,2.4c1.5,1.6,2.2,3.8,2.2,6.5v2h-14.7v0.6c0,2.3,0.6,4.3,1.9,5.9c1.2,1.6,2.9,2.4,4.9,2.4c1.4,0,2.7-0.2,3.7-0.6
		c1-0.4,1.9-1,2.6-1.7l1,1.6c-0.8,0.8-1.8,1.5-3,2C382.3,70.3,380.9,70.6,379.2,70.6z M379,50.9c-1.7,0-3.1,0.6-4.3,2
		c-1.2,1.3-1.8,2.9-2,4.9l0,0.1h12.2v-0.6c0-1.8-0.5-3.3-1.6-4.5C382.2,51.5,380.8,50.9,379,50.9z"/>
	<path d="M393.8,49.3l0.2,3.6c0.7-1.3,1.6-2.3,2.7-3c1.1-0.7,2.5-1.1,4-1.1c2.3,0,4,0.7,5.2,2.1c1.2,1.4,1.8,3.5,1.8,6.5v12.7h-2.3
		V57.4c0-2.4-0.4-4.1-1.3-5.1c-0.9-1-2.2-1.5-3.8-1.5c-1.6,0-2.9,0.4-4,1.3c-1,0.9-1.8,2-2.2,3.4v14.6h-2.3V49.3H393.8z"/>
</g>
</svg>
