<?xml version="1.0" encoding="utf-8"?>
<!-- Generator: Adobe Illustrator 22.0.1, SVG Export Plug-In . SVG Version: 6.00 Build 0)  -->
<svg version="1.1" id="Ebene_1" xmlns="http://www.w3.org/2000/svg" xmlns:xlink="http://www.w3.org/1999/xlink" x="0px" y="0px"
	 viewBox="0 0 507.3 192.8" style="enable-background:new 0 0 507.3 192.8;" xml:space="preserve">
<style type="text/css">
	.st0{fill:#FFCC00;}
	.st1{fill-rule:evenodd;clip-rule:evenodd;}
</style>
<g>
	<polygon class="st0" points="2,54.7 504.9,54.7 504.9,165.7 2,165.7 2,54.7 2,54.7 	"/>
	<polygon points="408.5,133 420.6,133 408.4,145.3 396.3,145.3 408.5,133 408.5,133 	"/>
	<polygon points="392.2,133 404.3,133 392.1,145.3 380,145.3 392.2,133 392.2,133 	"/>
	<polygon points="435.5,133 423.4,133 435.6,145.3 447.7,145.3 435.5,133 435.5,133 	"/>
	<polygon points="451.8,133 439.7,133 452,145.3 464.1,145.3 451.8,133 451.8,133 	"/>
	<path class="st1" d="M444.4,98.7c2.1-5.7,3.6-14.4,3.9-20.5l21.5,5.3c-1.7,25.2-20.6,47.2-48.6,47.2c-31.7,0-44-27.6-42.3-48.5
		l9.3-3c-1.5,11.9,2.2,20.5,4.7,24.4c-3-16.8,9.7-30.4,25.6-30.4C432.7,73.3,444.5,83.7,444.4,98.7L444.4,98.7L444.4,98.7z
		 M401.2,99.2c0-9.5,7.7-17.2,17.2-17.2c9.5,0,17.2,7.7,17.2,17.2c0,9.5-7.7,17.2-17.2,17.2C408.9,116.4,401.2,108.7,401.2,99.2
		L401.2,99.2L401.2,99.2z"/>
	<path class="st1" d="M77.8,116.7c0.3-3.6,2.3-6.3,6.2-6.3c3.9,0,5.5,2.9,5.7,6.3H77.8L77.8,116.7L77.8,116.7z M94.4,125.6
		c-2.6,1.5-5.5,2.7-8.9,2.7c-4.3,0-7.3-2.4-7.6-6.8h18.5c0-9.4-2.8-16.2-12.7-16.2c-8.3,0-12.4,6.4-12.4,14.1
		c0,8.8,5.1,13.9,14,13.9c3.7,0,6.7-0.7,9.2-2.1V125.6L94.4,125.6L94.4,125.6z"/>
	<path d="M124.1,106h-7v13.1c0,3.4-1.1,8.9-6.1,8.9c-4.5,0-4.5-4.4-4.5-7.7V106h-7v16.9c0,6,2.8,10.5,9.1,10.5
		c3.6,0,6.7-1.7,8.8-4.3h0.1v3.6h6.6V106L124.1,106L124.1,106z"/>
	<path d="M132.4,124.7c0,5.3,3,8.7,8.5,8.7c2.1,0,3.7-0.2,5.1-0.6l-0.2-5.5c-0.7,0.5-1.9,0.7-3.2,0.7c-2.7,0-3.3-2.1-3.3-4.4v-12.5
		h6.2V106h-6.2v-7.6l-7,2.2v5.4h-5.1v5.1h5.1V124.7L132.4,124.7L132.4,124.7z"/>
	<path d="M167.3,106.3c-2.2-0.5-4.3-1-7.6-1c-5.5,0-10.5,2.5-10.5,8.3c0,9.7,12.1,6.1,12.1,11.3c0,2.6-2.8,3.3-4.6,3.3
		c-2.4,0-4.7-0.7-6.9-1.8l-0.4,5.7c2.5,0.7,5.3,1.1,7.9,1.1c5.7,0,11.2-2.5,11.2-8.7c0-9.7-12.1-7-12.1-11.2c0-2.3,2.2-3,4.1-3
		c2.5,0,4.1,0.4,6.2,1.1L167.3,106.3L167.3,106.3L167.3,106.3z"/>
	<path d="M191,106.2c-1.9-0.6-4-0.9-6.8-0.9c-8.4,0-13,6.1-13,13.9c0,8.2,4.4,14.1,13.2,14.1c2.9,0,4.9-0.3,7-0.9l-0.3-5.8
		c-1.2,0.5-3.4,1.2-5.4,1.2c-4.9,0-7.2-3.8-7.2-8.7c0-5,2.8-8.5,7.1-8.5c2.1,0,3.5,0.4,4.7,1L191,106.2L191,106.2L191,106.2z"/>
	<path d="M195.1,132.8h7v-13.1c0-3.4,1.1-8.9,6.1-8.9c4.5,0,4.5,4.4,4.5,7.7v14.3h7v-16.9c0-6-2.8-10.5-9.1-10.5
		c-3.6,0-6.7,1.7-8.4,4.3H202V93.8h-7V132.8L195.1,132.8L195.1,132.8z"/>
	<path class="st1" d="M229.7,116.7c0.3-3.6,2.3-6.3,6.2-6.3c3.9,0,5.5,2.9,5.7,6.3H229.7L229.7,116.7L229.7,116.7z M246.2,125.6
		c-2.6,1.5-5.5,2.7-8.9,2.7c-4.3,0-7.3-2.4-7.6-6.8h18.5c0-9.4-2.8-16.2-12.7-16.2c-8.3,0-12.4,6.4-12.4,14.1
		c0,8.8,5.1,13.9,14,13.9c3.7,0,6.7-0.7,9.2-2.1V125.6L246.2,125.6L246.2,125.6z"/>
	<path class="st1" d="M270.7,102.2h2.5c3.7,0,6.9,1.5,6.9,5.7c0,4.2-3.3,5.4-6.9,5.4h-2.5V102.2L270.7,102.2L270.7,102.2z
		 M263.5,132.8h7.3V119h3.1c7.8,0,14-3.1,14-11.5c0-8.7-7.2-11-15.1-11h-9.2V132.8L263.5,132.8L263.5,132.8z"/>
	<path d="M336.8,106.3c-2.2-0.5-4.3-1-7.6-1c-5.5,0-10.5,2.5-10.5,8.3c0,9.7,12.1,6.1,12.1,11.3c0,2.6-2.8,3.3-4.6,3.3
		c-2.4,0-4.7-0.7-6.9-1.8l-0.4,5.7c2.5,0.7,5.3,1.1,7.9,1.1c5.7,0,11.2-2.5,11.2-8.7c0-9.7-12.1-7-12.1-11.2c0-2.3,2.2-3,4.1-3
		c2.5,0,4.1,0.4,6.2,1.1L336.8,106.3L336.8,106.3L336.8,106.3z"/>
	<path d="M345.6,124.7c0,5.3,3,8.7,8.5,8.7c2.1,0,3.7-0.2,5.2-0.6l-0.2-5.5c-0.7,0.5-1.9,0.7-3.2,0.7c-2.7,0-3.3-2.1-3.3-4.4v-12.5
		h6.2V106h-6.2v-7.6l-7,2.2v5.4h-5.2v5.1h5.2V124.7L345.6,124.7L345.6,124.7z"/>
	<path class="st1" d="M37.5,132.8h9.9c11.1,0,21-3.7,21-18.2c0-14.4-9.8-18.2-21-18.2h-9.9V132.8L37.5,132.8z M44.8,102.2h4.1
		c6.1,0,12,4.5,12,12.4c0,7.9-5.9,12.4-12,12.4h-4.1V102.2L44.8,102.2z"/>
	<path class="st1" d="M287.8,119.5c0,7.7,5.2,13.8,14,13.8c8.9,0,14-6.1,14-13.8c0-8.8-6.1-14.2-14-14.2
		C293.8,105.3,287.8,110.7,287.8,119.5L287.8,119.5z M295,118.7c0-4,2.2-8,6.7-8c4.6,0,6.8,3.8,6.8,8c0,4.5-1.4,9.3-6.8,9.3
		C296.4,128,295,123.1,295,118.7L295,118.7z"/>
</g>
<g>
	<path d="M56.4,29.3v2H38.9V4.8h17.5v2H41v10.1h12.8v1.8H41v10.7H56.4z"/>
	<path d="M61.1,6.1c0-1,0.6-1.5,1.6-1.5c1,0,1.6,0.6,1.6,1.5s-0.6,1.6-1.6,1.6C61.7,7.6,61.1,7,61.1,6.1z M61.6,12.8h2.1v18.5h-2.1
		V12.8z"/>
	<path d="M86.6,19v12.3h-2.1V19.4c0-4.4-2.8-5.2-5.3-5.2c-3.2,0-5.4,1.6-6.7,3.3v13.9h-2.1V12.8h2v2.7c1.4-1.7,4-3.2,7.5-3.2
		C83.3,12.3,86.6,13.5,86.6,19z"/>
	<path d="M118.3,13c0,5.8-2.8,9-8.7,9h-7.1v9.3h-2.2V4.8h9.3C115.5,4.8,118.3,7.1,118.3,13z M116.1,13c0-4.7-2.3-6.3-6.5-6.3h-7.1
		v13.4h7.1C113.8,20.2,116.1,17.7,116.1,13z"/>
	<path d="M136.9,19.1v12.2h-1.8v-3c-1.6,2.5-4.8,3.6-7.8,3.6c-3.9,0-6.1-1.9-6.1-5.4c0-3.9,2.5-5.4,6.7-5.4h7v-1.8
		c0-4.2-2.8-5.2-6-5.2c-2.6,0-4.4,0.8-6.2,2.8l-1.1-1.4c1.8-2.2,4.5-3.2,7.6-3.2C133.4,12.3,136.9,13.7,136.9,19.1z M134.8,26.1
		v-3.5h-6.8c-2.8,0-4.8,0.8-4.8,3.7c0,2.4,1.7,3.8,4.5,3.8C130.5,30.2,133.9,29.1,134.8,26.1z"/>
	<path d="M154.9,13.6l-1,1.8c-0.9-0.7-2-1.2-3.5-1.2c-2.4,0-4.3,1.6-5.2,3.8v13.4H143V12.8h2v3c1.1-2.2,3.2-3.5,5.7-3.5
		C152.6,12.3,153.8,12.8,154.9,13.6z"/>
	<path d="M173.2,30.1c-1.8,1.2-4.2,1.8-6.8,1.8c-3.9,0-6.7-1.6-6.7-7.3v-10h-2.6v-1.7h2.6V8.4h2.1v4.4h9.6v1.7h-9.6v9.9
		c0,4.5,2.3,5.6,4.9,5.6c1.9,0,4-0.5,5.7-1.6L173.2,30.1z"/>
	<path d="M192.8,19v12.3h-2.1V19.4c0-4.4-2.8-5.2-5.3-5.2c-3.2,0-5.4,1.6-6.7,3.3v13.9h-2.1V12.8h2v2.7c1.4-1.7,4-3.2,7.5-3.2
		C189.4,12.3,192.8,13.5,192.8,19z"/>
	<path d="M199.8,22.9v0.9c0,5,3.2,6.4,6.4,6.4c2.7,0,5-0.7,6.5-2.7l1.4,1.2c-1.6,2.3-4.4,3.3-8,3.3c-4.5,0-8.4-2-8.4-8v-3.6
		c0-6,4-8,8.4-8c4.4,0,8.2,1.9,8.2,8v2.6H199.8z M199.8,20.2v1.2h12.4v-1.2c0-4.8-3.2-6.1-6.1-6.1C203.1,14.1,199.8,15.4,199.8,20.2
		z"/>
	<path d="M231.4,13.6l-1,1.8c-0.9-0.7-2-1.2-3.5-1.2c-2.4,0-4.3,1.6-5.2,3.8v13.4h-2.1V12.8h2v3c1.1-2.2,3.2-3.5,5.7-3.5
		C229.1,12.3,230.3,12.8,231.4,13.6z"/>
	<path d="M258.9,1.8v29.6h-1.8l0-3.4c-1.5,2.9-4.5,4-7.6,4c-4.6,0-8.4-2-8.4-8v-3.5c0-6.1,4-8.1,8.5-8.1c2.9,0,5.7,0.9,7.2,3.5v-14
		H258.9z M256.8,25.7v-7.4c-1-3.3-4.2-4.3-6.8-4.3c-3.2,0-6.8,1.4-6.8,6.4v3.2c0,5,3.6,6.4,6.8,6.4
		C252.5,30.1,255.6,29.1,256.8,25.7z"/>
	<path d="M266.2,22.9v0.9c0,5,3.2,6.4,6.4,6.4c2.7,0,5-0.7,6.5-2.7l1.4,1.2c-1.6,2.3-4.4,3.3-8,3.3c-4.5,0-8.4-2-8.4-8v-3.6
		c0-6,4-8,8.4-8c4.4,0,8.2,1.9,8.2,8v2.6H266.2z M266.2,20.2v1.2h12.4v-1.2c0-4.8-3.2-6.1-6.1-6.1C269.5,14.1,266.2,15.4,266.2,20.2
		z"/>
	<path d="M297.8,13.6l-1,1.8c-0.9-0.7-2-1.2-3.5-1.2c-2.4,0-4.3,1.6-5.2,3.8v13.4H286V12.8h2v3c1.1-2.2,3.2-3.5,5.7-3.5
		C295.6,12.3,296.8,12.8,297.8,13.6z"/>
</g>
</svg>
